# xmcd
#
# Track frame offsets: 
#        180
#        20422
#        41920
#        58975
#        76992
#        97525
#        115645
#        133340
#        154027
#        174225
#
# Disc length: 2567 seconds
#
# Revision: 0
# Processed by: cddbd v1.5.1PL0 Copyright (c) Steve Scherf et al.
# Submitted via: ExactAudioCopy v0.95a5
#
DISCID=760a050a
DTITLE=Trudy Lynn - I'll Run Your Hurt Away
DYEAR=1993
DGENRE=Blues
TTITLE0=Loose Lips
TTITLE1=Try to Leave Me (If You Can)
TTITLE2=Whole Lotta Leave Me Alones
TTITLE3=Instant Breakfast
TTITLE4=I Don't Want No Other Love
TTITLE5=Love Jones
TTITLE6=I'll Run Your Hurt Away
TTITLE7=Anybody's Man Tonight
TTITLE8=Workin' Man
TTITLE9=Lover's Prayer - Pain in My Heart
EXTD=
EXTT0=
EXTT1=
EXTT2=
EXTT3=
EXTT4=
EXTT5=
EXTT6=
EXTT7=
EXTT8=
EXTT9=
PLAYORDER=
